<?xml version="1.0" encoding="UTF-8"?>
<svg xmlns="http://www.w3.org/2000/svg" xmlns:xlink="http://www.w3.org/1999/xlink" viewBox="0 0 48 48" width="48px" height="48px">
<g id="surface101334900">
<path style=" stroke:none;fill-rule:nonzero;fill:rgb(18.431373%,63.529414%,78.823531%);fill-opacity:1;" d="M 24 6.398438 C 17.300781 6.398438 8.609375 8.078125 8.609375 8.078125 L 8.585938 8.101562 C 5.535156 8.589844 3.199219 11.210938 3.199219 14.398438 L 3.199219 33.601562 C 3.207031 36.75 5.496094 39.421875 8.601562 39.914062 L 8.609375 39.921875 C 8.609375 39.921875 17.300781 41.601562 24 41.601562 C 30.699219 41.601562 39.390625 39.921875 39.390625 39.921875 L 39.394531 39.917969 C 42.503906 39.429688 44.796875 36.75 44.800781 33.601562 L 44.800781 14.398438 C 44.796875 11.253906 42.503906 8.578125 39.398438 8.085938 L 39.390625 8.078125 C 39.390625 8.078125 30.699219 6.398438 24 6.398438 Z M 19.199219 16.636719 L 32 24 L 19.199219 31.363281 Z M 19.199219 16.636719 "/>
</g>
</svg>
